<svg xmlns="http://www.w3.org/2000/svg" width="1200" height="750" viewBox="0 0 1200 750" role="img" aria-labelledby="title desc">
<title id="title">The hardware behind the lab.</title><desc id="desc">Ethernet, virtualization and storage attachment — exact ports and placement stay private.. Role-based illustration · production identifiers omitted.</desc>
<defs><linearGradient id="bg" x1="0" y1="0" x2="1" y2="1"><stop stop-color="#08131f"/><stop offset="1" stop-color="#142640"/></linearGradient><marker id="arrow" viewBox="0 0 10 10" refX="9" refY="5" markerWidth="6" markerHeight="6" orient="auto-start-reverse"><path d="M 0 0 L 10 5 L 0 10 z" fill="#acbdce"/></marker></defs>
<rect width="1200" height="750" rx="20" fill="url(#bg)"/>
<text x="44" y="45" font-family="DejaVu Sans,Arial,sans-serif" font-size="13" font-weight="600" fill="#43dfc1">ROHAN MENON / HOME LAB V4</text>
<text x="44" y="92" font-family="DejaVu Sans,Arial,sans-serif" font-size="32" font-weight="600" fill="#f0f6ff">The hardware behind the lab.</text>
<text x="44" y="126" font-family="DejaVu Sans,Arial,sans-serif" font-size="17" font-weight="400" fill="#acbdce">Ethernet, virtualization and storage attachment — exact ports and placement stay private.</text>
<rect x="44" y="170" width="330" height="115" rx="14" fill="#132238" stroke="#29405c"/><rect x="44" y="186" width="4" height="83" rx="2" fill="#78b5ff"/><text x="64" y="200" font-family="DejaVu Sans,Arial,sans-serif" font-size="12" font-weight="600" fill="#78b5ff">EDGE</text><text x="64" y="228" font-family="DejaVu Sans,Arial,sans-serif" font-size="21" font-weight="600" fill="#f0f6ff">Bridged gateway</text><text x="64" y="255" font-family="DejaVu Sans,Arial,sans-serif" font-size="15" font-weight="400" fill="#acbdce">Provider handoff</text><rect x="435" y="170" width="330" height="115" rx="14" fill="#132238" stroke="#29405c"/><rect x="435" y="186" width="4" height="83" rx="2" fill="#43dfc1"/><text x="455" y="200" font-family="DejaVu Sans,Arial,sans-serif" font-size="12" font-weight="600" fill="#43dfc1">ROUTING</text><text x="455" y="228" font-family="DejaVu Sans,Arial,sans-serif" font-size="21" font-weight="600" fill="#f0f6ff">Flint 2</text><text x="455" y="255" font-family="DejaVu Sans,Arial,sans-serif" font-size="15" font-weight="400" fill="#acbdce">Router and VLAN gateways</text><rect x="826" y="170" width="330" height="115" rx="14" fill="#132238" stroke="#29405c"/><rect x="826" y="186" width="4" height="83" rx="2" fill="#bd9aff"/><text x="846" y="200" font-family="DejaVu Sans,Arial,sans-serif" font-size="12" font-weight="600" fill="#bd9aff">ETHERNET</text><text x="846" y="228" font-family="DejaVu Sans,Arial,sans-serif" font-size="21" font-weight="600" fill="#f0f6ff">M4100 switch</text><text x="846" y="255" font-family="DejaVu Sans,Arial,sans-serif" font-size="15" font-weight="400" fill="#acbdce">Wired aggregation</text><polyline points="374,227 435,227" fill="none" stroke="#acbdce" stroke-width="2" stroke-linejoin="round" marker-end="url(#arrow)"/><polyline points="765,227 826,227" fill="none" stroke="#acbdce" stroke-width="2" stroke-linejoin="round" marker-end="url(#arrow)"/><polyline points="991,285 991,319 214,319 214,363" fill="none" stroke="#acbdce" stroke-width="2" stroke-linejoin="round" marker-end="url(#arrow)"/><polyline points="991,319 600,319 600,363" fill="none" stroke="#acbdce" stroke-width="2" stroke-linejoin="round" marker-end="url(#arrow)"/><polyline points="991,319 991,363" fill="none" stroke="#acbdce" stroke-width="2" stroke-linejoin="round" marker-end="url(#arrow)"/><rect x="44" y="363" width="330" height="120" rx="14" fill="#132238" stroke="#29405c"/><rect x="44" y="379" width="4" height="88" rx="2" fill="#78b5ff"/><text x="64" y="396" font-family="DejaVu Sans,Arial,sans-serif" font-size="21" font-weight="600" fill="#f0f6ff">U6-LR</text><text x="64" y="423" font-family="DejaVu Sans,Arial,sans-serif" font-size="15" font-weight="400" fill="#acbdce">Ethernet backhaul</text><text x="64" y="447" font-family="DejaVu Sans,Arial,sans-serif" font-size="15" font-weight="400" fill="#acbdce">Trusted / IoT / guest Wi-Fi</text><rect x="435" y="363" width="330" height="120" rx="14" fill="#132238" stroke="#29405c"/><rect x="435" y="379" width="4" height="88" rx="2" fill="#43dfc1"/><text x="455" y="396" font-family="DejaVu Sans,Arial,sans-serif" font-size="21" font-weight="600" fill="#f0f6ff">Beelink EQ14</text><text x="455" y="423" font-family="DejaVu Sans,Arial,sans-serif" font-size="15" font-weight="400" fill="#acbdce">Proxmox</text><text x="455" y="447" font-family="DejaVu Sans,Arial,sans-serif" font-size="15" font-weight="400" fill="#acbdce">VLAN-aware guest hosting</text><rect x="826" y="363" width="330" height="120" rx="14" fill="#132238" stroke="#29405c"/><rect x="826" y="379" width="4" height="88" rx="2" fill="#ffc18a"/><text x="846" y="396" font-family="DejaVu Sans,Arial,sans-serif" font-size="21" font-weight="600" fill="#f0f6ff">Physical Pi-hole</text><text x="846" y="423" font-family="DejaVu Sans,Arial,sans-serif" font-size="15" font-weight="400" fill="#acbdce">Secondary DNS</text><text x="846" y="447" font-family="DejaVu Sans,Arial,sans-serif" font-size="15" font-weight="400" fill="#acbdce">Separate compute dependency</text><rect x="435" y="530" width="330" height="120" rx="14" fill="#132238" stroke="#29405c"/><rect x="435" y="546" width="4" height="88" rx="2" fill="#bd9aff"/><text x="455" y="563" font-family="DejaVu Sans,Arial,sans-serif" font-size="21" font-weight="600" fill="#f0f6ff">UGREEN + IronWolf</text><text x="455" y="590" font-family="DejaVu Sans,Arial,sans-serif" font-size="15" font-weight="400" fill="#acbdce">USB → host ext4 mount</text><text x="455" y="614" font-family="DejaVu Sans,Arial,sans-serif" font-size="15" font-weight="400" fill="#acbdce">Selected NAS bind mounts</text><polyline points="600,530 600,483" fill="none" stroke="#bd9aff" stroke-width="2" stroke-linejoin="round" marker-end="url(#arrow)"/><rect x="44" y="530" width="330" height="120" rx="14" fill="#132238" stroke="#29405c"/><rect x="44" y="546" width="4" height="88" rx="2" fill="#ffc18a"/><text x="64" y="563" font-family="DejaVu Sans,Arial,sans-serif" font-size="21" font-weight="600" fill="#f0f6ff">WD Elements</text><text x="64" y="590" font-family="DejaVu Sans,Arial,sans-serif" font-size="15" font-weight="400" fill="#acbdce">Manual copy target</text><text x="64" y="614" font-family="DejaVu Sans,Arial,sans-serif" font-size="15" font-weight="400" fill="#acbdce">Coverage must be verified</text><rect x="826" y="530" width="330" height="120" rx="14" fill="#132238" stroke="#29405c"/><rect x="826" y="546" width="4" height="88" rx="2" fill="#acbdce"/><text x="846" y="563" font-family="DejaVu Sans,Arial,sans-serif" font-size="21" font-weight="600" fill="#f0f6ff">CyberPower UPS</text><text x="846" y="590" font-family="DejaVu Sans,Arial,sans-serif" font-size="15" font-weight="400" fill="#acbdce">Installed hardware</text><text x="846" y="614" font-family="DejaVu Sans,Arial,sans-serif" font-size="15" font-weight="400" fill="#acbdce">Load map kept private</text>
<line x1="44" y1="692" x2="1156" y2="692" stroke="#29405c"/>
<text x="44" y="723" font-family="DejaVu Sans,Arial,sans-serif" font-size="14" font-weight="400" fill="#acbdce">Role-based illustration · production identifiers omitted</text>
</svg>
